<svg height="471pt" viewBox="0 -2 471.99293 471" width="471pt" xmlns="http://www.w3.org/2000/svg"><g fill="#9bc9ff"><path d="m231.144531 64.296875c.5625 1.667969.855469 3.417969.855469 5.183594 0-1.765625-.292969-3.515625-.855469-5.183594zm0 0"/><path d="m225.007812 56.246094c1.261719.898437 2.386719 1.976562 3.335938 3.199218-.949219-1.222656-2.070312-2.300781-3.335938-3.199218zm0 0"/><path d="m228.726562 59.773438c.78125 1.101562 1.417969 2.296874 1.898438 3.554687-.480469-1.257813-1.117188-2.453125-1.898438-3.554687zm0 0"/><path d="m230.625 63.328125c.144531.34375.398438.613281.519531.96875-.121093-.355469-.375-.625-.519531-.96875zm0 0"/><path d="m225.007812 56.246094c-1.464843-.996094-3.089843-1.742188-4.800781-2.207032l-191.246093-52.71875 191.277343 52.71875c1.703125.46875 3.3125 1.214844 4.769531 2.207032zm0 0"/><path d="m228.34375 59.414062c.113281.136719.28125.226563.382812.359376-.109374-.132813-.269531-.222657-.382812-.359376zm0 0"/></g><path d="m0 397.167969c-.00390625 7.203125 4.808594 13.519531 11.753906 15.429687l200 55.113282c4.8125 1.328124 9.972656.328124 13.945313-2.699219 3.972656-3.027344 6.300781-7.738281 6.300781-12.734375v-218.957032h-232zm0 0" fill="#2b3990"/><path d="m231.144531 64.296875c-.121093-.355469-.375-.625-.519531-.96875-.480469-1.257813-1.117188-2.453125-1.898438-3.554687-.101562-.132813-.269531-.222657-.382812-.359376-2.039062-2.628906-4.886719-4.519531-8.105469-5.375l-191.277343-52.71875c-6.886719-1.898437-14.261719-.472656-19.945313 3.855469-5.679687 4.324219-9.015625 11.058594-9.015625 18.199219v209.945312h232v-163.839843c0-1.765625-.292969-3.515625-.855469-5.183594zm0 0" fill="#434f9c"/><path d="m320 1.320312h-291.039062l191.277343 52.71875c1.714844.464844 3.335938 1.210938 4.800781 2.207032 1.265626.898437 2.390626 1.976562 3.335938 3.199218.113281.136719.273438.226563.386719.363282.777343 1.097656 1.414062 2.292968 1.894531 3.550781.144531.34375.398438.617187.519531.96875.550781 1.660156.828125 3.402344.824219 5.152344v163.839843h104v-216c-.027344-8.828124-7.175781-15.976562-16-16zm0 0" fill="#5bf9ff"/><path d="m232 409.320312h88c8.824219-.027343 15.972656-7.175781 16-16v-160h-104zm0 0" fill="#3dd9df"/><path d="m471.382812 230.261719c-.398437-.96875-.984374-1.855469-1.726562-2.597657l-64-64c-3.140625-3.03125-8.128906-2.988281-11.214844.097657-3.085937 3.085937-3.128906 8.074219-.097656 11.214843l50.34375 50.34375h-212.6875v16h212.6875l-50.34375 50.34375c-2.078125 2.007813-2.914062 4.980469-2.179688 7.777344.730469 2.796875 2.914063 4.984375 5.710938 5.714844 2.796875.734375 5.773438-.101562 7.78125-2.179688l64-64c2.28125-2.289062 2.964844-5.726562 1.726562-8.714843zm0 0" fill="#ff3051"/></svg>